<?xml version="1.0" encoding="UTF-8" standalone="no"?>
<svg
   xmlns:dc="http://purl.org/dc/elements/1.1/"
   xmlns:cc="http://creativecommons.org/ns#"
   xmlns:rdf="http://www.w3.org/1999/02/22-rdf-syntax-ns#"
   xmlns:svg="http://www.w3.org/2000/svg"
   xmlns="http://www.w3.org/2000/svg"
   xmlns:sodipodi="http://sodipodi.sourceforge.net/DTD/sodipodi-0.dtd"
   xmlns:inkscape="http://www.inkscape.org/namespaces/inkscape"
   version="1.1"
   x="0px"
   y="0px"
   viewBox="0 0 640.00001 640"
   enable-background="new 0 0 100 100"
   xml:space="preserve"
   id="svg28"
   sodipodi:docname="ost-logo.svg"
   width="640"
   height="640"
   inkscape:version="0.92.3 (2405546, 2018-03-11)"
   inkscape:export-filename="/home/joseba/Develop/ost/ost-logo.png"
   inkscape:export-xdpi="96"
   inkscape:export-ydpi="96"><metadata
     id="metadata34"><rdf:RDF><cc:Work
         rdf:about=""><dc:format>image/svg+xml</dc:format><dc:type
           rdf:resource="http://purl.org/dc/dcmitype/StillImage" /><dc:title /></cc:Work></rdf:RDF></metadata><defs
     id="defs32" /><sodipodi:namedview
     pagecolor="#ffffff"
     bordercolor="#666666"
     borderopacity="1"
     objecttolerance="10"
     gridtolerance="10"
     guidetolerance="10"
     inkscape:pageopacity="0"
     inkscape:pageshadow="2"
     inkscape:window-width="1920"
     inkscape:window-height="1025"
     id="namedview30"
     showgrid="false"
     fit-margin-top="0"
     fit-margin-left="0"
     fit-margin-right="0"
     fit-margin-bottom="0"
     inkscape:zoom="0.236"
     inkscape:cx="-367.75524"
     inkscape:cy="517.22392"
     inkscape:window-x="0"
     inkscape:window-y="27"
     inkscape:window-maximized="1"
     inkscape:current-layer="svg28" /><g
     id="g47"
     transform="matrix(-7.2315176,1.9332711,1.9332711,7.2315176,578.27726,-118.94737)"><path
       id="path2"
       d="m 43.359,85.708 c -1.112,0 -2.182,0.1 -3.588,0.296 C 37.912,86.263 36,86.395 35,86.395 v 0.002 c -4,0 -5.882,-0.74 -6.648,-2.148 -0.634,-1.164 -0.342,-2.742 0.142,-3.889 l 4.066,1.913 3.052,-1.878 -14.524,-6.741 0.543,3.563 4.723,2.196 c -1.092,1.655 -2.578,4.49 -2.115,7.158 0.299,1.726 1.335,3.162 3.079,4.156 3.628,2.064 7.543,3.273 11.327,3.273 0,0 10e-4,0 10e-4,0 5.463,0 10.255,-2.522 10.255,-5.264 0,-0.875 -0.54,-3.028 -5.542,-3.028 z m -4.713,6.057 c -3.438,0 -7.013,-1.001 -10.339,-2.895 -1.215,-0.691 -1.902,-1.574 -2.098,-2.696 -0.079,-0.45 -0.077,-0.916 -0.017,-1.384 0.056,0.134 0.12,0.267 0.191,0.398 1.151,2.126 3.911,3.204 8.202,3.204 0,0 10e-4,0 10e-4,0 1.536,0 3.304,-0.138 5.252,-0.409 1.316,-0.183 2.5,-0.275 3.52,-0.275 2.65,0 3.542,0.625 3.542,0.91 0.001,0.961 -3.118,3.147 -8.254,3.147 z"
       inkscape:connector-curvature="0" /><polygon
       id="polygon4"
       points="29.544,53.055 27.033,58.459 41.175,70.739 43.686,65.335 " /><polygon
       id="polygon6"
       points="36.603,37.863 35.76,39.676 49.903,51.956 52.927,45.448 " /><polygon
       id="polygon8"
       points="26.594,59.402 24.083,64.807 38.225,77.087 40.736,71.684 " /><polygon
       id="polygon10"
       points="36.914,79.909 37.787,78.031 23.645,65.751 20.59,72.324 " /><polygon
       id="polygon12"
       points="35.322,40.62 32.932,45.763 47.074,58.044 49.464,52.9 " /><polygon
       id="polygon14"
       points="44.125,64.391 46.636,58.987 32.494,46.707 29.982,52.111 " /><polygon
       id="polygon16"
       points="79.41,33.541 77.485,28.19 67.794,49.048 73.124,47.068 " /><polygon
       id="polygon18"
       points="24.264,28.822 33.955,7.964 28.624,9.943 22.339,23.471 " /><polygon
       id="polygon20"
       points="77.211,26.408 76.969,25.744 36.158,6.782 35.494,7.025 24.538,30.604 24.781,31.268 65.591,50.23 66.255,49.987 " /><polygon
       id="polygon22"
       points="64.239,18.727 63.69,15.164 52.808,10.107 49.729,11.985 " /></g></svg>